#N canvas 560 219 657 591 10;
#X obj 23 64 noise~;
#X obj 23 117 *~;
#X obj 89 26 loadbang;
#X obj 89 43 metro 500;
#X msg 89 71 0.8 10 \, 0 250 10;
#X obj 89 88 vline~;
#X obj 23 188 dac~;
#X obj 23 155 freeverb~;
#X connect 0 0 1 0;
#X connect 1 0 7 0;
#X connect 1 0 7 1;
#X connect 2 0 3 0;
#X connect 3 0 4 0;
#X connect 4 0 5 0;
#X connect 5 0 1 1;
#X connect 7 0 6 0;
#X connect 7 1 6 1;
