#N canvas 555 129 611 671 12;
#X obj 10 6 adc~ 1 2 3 4 5 6 7 8;
#X obj 69 238 pack 0 0 0 0 0 0 0 0;
#N canvas 991 248 338 223 check 0;
#X obj 9 8 inlet~;
#X obj 9 32 env~;
#X obj 72 56 f 0;
#X obj 9 56 moses 0;
#X obj 72 81 outlet;
#X connect 0 0 1 0;
#X connect 1 0 3 0;
#X connect 2 0 3 1;
#X connect 2 0 4 0;
#X connect 3 1 2 0;
#X restore 10 191 pd check;
#N canvas 991 248 338 223 check 0;
#X obj 9 8 inlet~;
#X obj 9 32 env~;
#X obj 72 56 f 0;
#X obj 9 56 moses 0;
#X obj 72 81 outlet;
#X connect 0 0 1 0;
#X connect 1 0 3 0;
#X connect 2 0 3 1;
#X connect 2 0 4 0;
#X connect 3 1 2 0;
#X restore 29 168 pd check;
#N canvas 991 248 338 223 check 0;
#X obj 9 8 inlet~;
#X obj 9 32 env~;
#X obj 72 56 f 0;
#X obj 9 56 moses 0;
#X obj 72 81 outlet;
#X connect 0 0 1 0;
#X connect 1 0 3 0;
#X connect 2 0 3 1;
#X connect 2 0 4 0;
#X connect 3 1 2 0;
#X restore 49 145 pd check;
#N canvas 991 248 338 223 check 0;
#X obj 9 8 inlet~;
#X obj 9 32 env~;
#X obj 72 56 f 0;
#X obj 9 56 moses 0;
#X obj 72 81 outlet;
#X connect 0 0 1 0;
#X connect 1 0 3 0;
#X connect 2 0 3 1;
#X connect 2 0 4 0;
#X connect 3 1 2 0;
#X restore 68 122 pd check;
#N canvas 991 248 338 223 check 0;
#X obj 9 8 inlet~;
#X obj 9 32 env~;
#X obj 72 56 f 0;
#X obj 9 56 moses 0;
#X obj 72 81 outlet;
#X connect 0 0 1 0;
#X connect 1 0 3 0;
#X connect 2 0 3 1;
#X connect 2 0 4 0;
#X connect 3 1 2 0;
#X restore 88 99 pd check;
#N canvas 991 248 338 223 check 0;
#X obj 9 8 inlet~;
#X obj 9 32 env~;
#X obj 72 56 f 0;
#X obj 9 56 moses 0;
#X obj 72 81 outlet;
#X connect 0 0 1 0;
#X connect 1 0 3 0;
#X connect 2 0 3 1;
#X connect 2 0 4 0;
#X connect 3 1 2 0;
#X restore 107 76 pd check;
#N canvas 991 248 338 223 check 0;
#X obj 9 8 inlet~;
#X obj 9 32 env~;
#X obj 72 56 f 0;
#X obj 9 56 moses 0;
#X obj 72 81 outlet;
#X connect 0 0 1 0;
#X connect 1 0 3 0;
#X connect 2 0 3 1;
#X connect 2 0 4 0;
#X connect 3 1 2 0;
#X restore 127 53 pd check;
#N canvas 991 248 338 223 check 0;
#X obj 9 8 inlet~;
#X obj 9 32 env~;
#X obj 72 56 f 0;
#X obj 9 56 moses 0;
#X obj 72 81 outlet;
#X connect 0 0 1 0;
#X connect 1 0 3 0;
#X connect 2 0 3 1;
#X connect 2 0 4 0;
#X connect 3 1 2 0;
#X restore 147 30 pd check;
#X obj 223 205 delay 1000;
#X obj 223 170 loadbang;
#X obj 223 256 tgl 15 0 empty empty empty 17 7 0 10 -262144 -1 -1 0
1;
#X obj 69 271 spigot;
#X obj 69 300 print InputLevels;
#X connect 0 0 2 0;
#X connect 0 1 3 0;
#X connect 0 2 4 0;
#X connect 0 3 5 0;
#X connect 0 4 6 0;
#X connect 0 5 7 0;
#X connect 0 6 8 0;
#X connect 0 7 9 0;
#X connect 1 0 13 0;
#X connect 2 0 1 0;
#X connect 3 0 1 1;
#X connect 4 0 1 2;
#X connect 5 0 1 3;
#X connect 6 0 1 4;
#X connect 7 0 1 5;
#X connect 8 0 1 6;
#X connect 9 0 1 7;
#X connect 10 0 12 0;
#X connect 10 0 1 0;
#X connect 11 0 10 0;
#X connect 12 0 13 1;
#X connect 13 0 14 0;
