#N canvas 0 186 934 513 10;
#X msg 23 40 read Loop.wav wavetable;
#N canvas 0 50 450 250 (subpatch) 0;
#X array wavetable 88200 float 4;
#X coords 0 1 88200 -1 200 140 1;
#X restore 341 20 graph;
#X obj 24 78 soundfiler;
#X obj 170 152 tabplay~ wavetable;
#X obj 173 188 dac~;
#X obj 184 88 metro 2000;
#X obj 196 16 loadbang;
#X msg 303 128 start;
#X msg 350 128 stop;
#X msg 340 164 open test.wav;
#X obj 278 205 writesf~ 2;
#X obj 267 65 delay 10;
#X obj 347 97 delay 2000;
#X connect 0 0 2 0;
#X connect 3 0 4 0;
#X connect 3 0 4 1;
#X connect 3 0 10 0;
#X connect 3 0 10 1;
#X connect 5 0 3 0;
#X connect 6 0 0 0;
#X connect 6 0 5 0;
#X connect 6 0 9 0;
#X connect 6 0 11 0;
#X connect 7 0 10 0;
#X connect 8 0 10 0;
#X connect 9 0 10 0;
#X connect 11 0 7 0;
#X connect 11 0 12 0;
#X connect 12 0 8 0;
