#N canvas 295 50 475 581 10;
#X obj 13 256 dac~;
#X obj 13 180 *~;
#X obj 31 161 receive level;
#X obj 13 28 metro 250;
#X obj 135 120 vline~;
#X obj 13 106 osc~ 440;
#X obj 13 135 *~;
#X msg 135 42 1 1 \, 0 100 10;
#X obj 13 77 vline~;
#X msg 13 54 440 1 \, 220 100 10;
#X msg 149 165 0;
#X obj 149 148 loadbang;
#X obj 13 5 receive toggle;
#X obj 13 209 ADCSwitch;
#X obj 70 187 tgl 15 0 empty empty empty 17 7 0 10 -262144 -1 -1 1
1;
#X connect 1 0 13 0;
#X connect 2 0 1 1;
#X connect 3 0 7 0;
#X connect 3 0 9 0;
#X connect 4 0 6 1;
#X connect 5 0 6 0;
#X connect 6 0 1 0;
#X connect 7 0 4 0;
#X connect 8 0 5 0;
#X connect 9 0 8 0;
#X connect 10 0 1 1;
#X connect 11 0 10 0;
#X connect 12 0 3 0;
#X connect 13 0 0 0;
#X connect 13 1 0 1;
#X connect 14 0 13 1;
