#N canvas 985 218 513 326 10;
#X obj 10 52 osc~ 440;
#X obj 10 95 *~;
#X obj 10 135 dac~;
#X obj 92 8 phasor~ 1;
#X obj 92 80 wrap~;
#X obj 92 60 +~;
#X obj 183 7 osc~ 0.11;
#X obj 183 26 *~ 0.5;
#X obj 183 46 +~ 0.5;
#X connect 0 0 1 0;
#X connect 1 0 2 0;
#X connect 1 0 2 1;
#X connect 3 0 5 0;
#X connect 4 0 1 1;
#X connect 5 0 4 0;
#X connect 6 0 7 0;
#X connect 7 0 8 0;
#X connect 8 0 5 1;
